# Blender v3.5.0 OBJ File: 'TL_TASK.blend'
# www.blender.org
mtllib HOUSE.mtl
o HOUSE_立方体.001
v 22.439581 0.000000 3.380799
v 22.439581 8.000000 3.380799
v 22.579201 0.000000 11.379581
v 22.579201 8.000000 11.379581
v 14.440800 0.000000 3.520419
v 14.440800 8.000000 3.520419
v 14.580420 0.000000 11.519200
v 14.580420 8.000000 11.519200
v 18.579809 0.000000 11.449390
v 18.579809 8.000000 11.449390
v 18.440191 0.000000 3.450609
v 18.440191 8.000000 3.450609
v 22.509392 0.000000 7.380190
v 22.509392 8.000000 7.380190
v 14.510610 0.000000 7.519809
v 14.510610 8.000000 7.519809
v 18.510000 13.492966 7.450000
v 18.510000 0.000000 7.450000
vt 0.625000 0.125000
vt 0.375000 0.250000
vt 0.375000 0.125000
vt 0.625000 0.375000
vt 0.375000 0.500000
vt 0.375000 0.375000
vt 0.625000 0.625000
vt 0.375000 0.750000
vt 0.375000 0.625000
vt 0.625000 0.875000
vt 0.375000 1.000000
vt 0.375000 0.875000
vt 0.250000 0.750000
vt 0.250000 0.625000
vt 0.875000 0.625000
vt 0.750000 0.750000
vt 0.750000 0.625000
vt 0.625000 0.750000
vt 0.125000 0.750000
vt 0.125000 0.625000
vt 0.625000 0.250000
vt 0.250000 0.500000
vt 0.125000 0.500000
vt 0.750000 0.500000
vt 0.625000 0.500000
vt 0.625000 0.000000
vt 0.375000 0.000000
vt 0.625000 1.000000
vt 0.875000 0.750000
vt 0.875000 0.500000
vn 0.9998 0.0000 -0.0175
vn 0.0175 0.0000 0.9998
vn -0.9998 0.0000 0.0175
vn -0.0175 0.0000 -0.9998
vn 0.0000 -1.0000 0.0000
vn 0.6176 0.4578 -0.6395
vn 0.0000 1.0000 0.0000
vn 0.6395 0.4578 0.6176
vn -0.6395 0.4578 -0.6176
vn -0.6176 0.4578 0.6395
usemtl マテリアル
s off
f 14/1/1 3/2/1 13/3/1
f 10/4/2 7/5/2 9/6/2
f 16/7/3 5/8/3 15/9/3
f 12/10/4 1/11/4 11/12/4
f 15/9/5 11/13/5 18/14/5
f 14/15/6 12/16/6 17/17/6
f 16/7/7 12/16/7 6/18/7
f 18/14/5 1/19/5 13/20/5
f 6/18/4 11/12/4 5/8/4
f 4/21/2 9/6/2 3/2/2
f 9/22/5 13/20/5 3/23/5
f 10/24/7 16/7/7 8/25/7
f 10/24/8 14/15/8 17/17/8
f 7/5/5 18/14/5 9/22/5
f 8/25/3 15/9/3 7/5/3
f 2/26/1 13/3/1 1/27/1
f 14/1/1 4/21/1 3/2/1
f 10/4/2 8/25/2 7/5/2
f 16/7/3 6/18/3 5/8/3
f 12/10/4 2/28/4 1/11/4
f 15/9/5 5/8/5 11/13/5
f 14/15/7 2/29/7 12/16/7
f 16/7/9 17/17/9 12/16/9
f 18/14/5 11/13/5 1/19/5
f 6/18/4 12/10/4 11/12/4
f 4/21/2 10/4/2 9/6/2
f 9/22/5 18/14/5 13/20/5
f 10/24/10 17/17/10 16/7/10
f 10/24/7 4/30/7 14/15/7
f 7/5/5 15/9/5 18/14/5
f 8/25/3 16/7/3 15/9/3
f 2/26/1 14/1/1 13/3/1
