# Blender v3.5.0 OBJ File: ''
# www.blender.org
mtllib HOUSE.mtl
o HOUSE_HOUSE_HOUSE_HOUSE_立方体.002
v 3.988278 3.900001 -0.074015
v 3.981297 -4.099998 3.925981
v 3.988277 -4.099999 -0.074013
v -0.018700 3.900002 3.918998
v -4.018690 -4.099998 3.912020
v -0.018700 -4.099998 3.918999
v -4.011711 3.900001 -0.087978
v -4.004730 -4.100000 -4.087969
v -4.011711 -4.099999 -0.087976
v -0.004734 3.900000 -4.080991
v 3.995258 -4.100000 -4.074007
v -0.004734 -4.100000 -4.080988
v -0.011717 -4.099999 -0.080994
v -0.011717 9.392966 -0.080997
v -4.004730 3.900000 -4.087971
v 3.981297 3.900002 3.925980
v -4.018690 3.900002 3.912017
v 3.995258 3.900000 -4.074008
vt 0.625000 0.125000
vt 0.375000 0.250000
vt 0.375000 0.125000
vt 0.625000 0.375000
vt 0.375000 0.500000
vt 0.375000 0.375000
vt 0.625000 0.625000
vt 0.375000 0.750000
vt 0.375000 0.625000
vt 0.625000 0.875000
vt 0.375000 1.000000
vt 0.375000 0.875000
vt 0.250000 0.750000
vt 0.250000 0.625000
vt 0.875000 0.625000
vt 0.750000 0.750000
vt 0.750000 0.625000
vt 0.625000 0.750000
vt 0.125000 0.750000
vt 0.125000 0.625000
vt 0.625000 0.250000
vt 0.250000 0.500000
vt 0.125000 0.500000
vt 0.750000 0.500000
vt 0.625000 0.500000
vt 0.625000 0.000000
vt 0.375000 0.000000
vt 0.625000 1.000000
vt 0.875000 0.750000
vt 0.875000 0.500000
vn 1.0000 -0.0000 0.0017
vn -0.0017 0.0000 1.0000
vn -1.0000 -0.0000 -0.0017
vn 0.0017 -0.0000 -1.0000
vn -0.0000 -1.0000 0.0000
vn 0.6298 0.4578 -0.6276
vn 0.0000 1.0000 -0.0000
vn 0.6276 0.4578 0.6298
vn -0.6276 0.4578 -0.6298
vn -0.6298 0.4578 0.6276
usemtl マテリアル.001
s 1
f 1/1/1 2/2/1 3/3/1
f 4/4/2 5/5/2 6/6/2
f 7/7/3 8/8/3 9/9/3
f 10/10/4 11/11/4 12/12/4
f 9/9/5 12/13/5 13/14/5
f 1/15/6 10/16/6 14/17/6
f 7/7/7 10/16/7 15/18/7
f 13/14/5 11/19/5 3/20/5
f 15/18/4 12/12/4 8/8/4
f 16/21/2 6/6/2 2/2/2
f 6/22/5 3/20/5 2/23/5
f 4/24/7 7/7/7 17/25/7
f 4/24/8 1/15/8 14/17/8
f 5/5/5 13/14/5 6/22/5
f 17/25/3 9/9/3 5/5/3
f 18/26/1 3/3/1 11/27/1
f 1/1/1 16/21/1 2/2/1
f 4/4/2 17/25/2 5/5/2
f 7/7/3 15/18/3 8/8/3
f 10/10/4 18/28/4 11/11/4
f 9/9/5 8/8/5 12/13/5
f 1/15/7 18/29/7 10/16/7
f 7/7/9 14/17/9 10/16/9
f 13/14/5 12/13/5 11/19/5
f 15/18/4 10/10/4 12/12/4
f 16/21/2 4/4/2 6/6/2
f 6/22/5 13/14/5 3/20/5
f 4/24/10 14/17/10 7/7/10
f 4/24/7 16/30/7 1/15/7
f 5/5/5 9/9/5 13/14/5
f 17/25/3 7/7/3 9/9/3
f 18/26/1 1/1/1 3/3/1
