# Blender v3.5.0 OBJ File: 'TL_TASK.blend'
# www.blender.org
mtllib KING.mtl
o KING_KING_KING_立方体
v -1.000000 2.000000 0.000000
v -1.000000 0.000000 -1.000000
v -1.000000 0.000000 -0.000000
v 0.000000 2.000000 -1.000000
v 1.000000 0.000000 -1.000000
v 0.000000 0.000000 -1.000000
v 1.000000 2.000000 0.000000
v 1.000000 -0.000000 1.000000
v 1.000000 0.000000 -0.000000
v 0.000000 2.000000 1.000000
v -1.000000 -0.000000 1.000000
v 0.000000 -0.000000 1.000000
v 0.000000 0.000000 -0.000000
v 0.000000 2.000000 0.000000
v 1.000000 2.999733 -1.000000
v 1.000000 2.993201 1.000000
v -1.000000 3.000823 -1.000000
v -1.000000 3.012158 1.000000
vt 0.625000 0.125000
vt 0.375000 0.250000
vt 0.375000 0.125000
vt 0.625000 0.375000
vt 0.375000 0.500000
vt 0.375000 0.375000
vt 0.625000 0.625000
vt 0.375000 0.750000
vt 0.375000 0.625000
vt 0.625000 0.875000
vt 0.375000 1.000000
vt 0.375000 0.875000
vt 0.250000 0.750000
vt 0.250000 0.625000
vt 0.875000 0.625000
vt 0.750000 0.750000
vt 0.750000 0.625000
vt 0.750000 0.500000
vt 0.250000 0.500000
vt 0.375000 0.000000
vt 0.125000 0.625000
vt 0.125000 0.500000
vt 0.625000 0.500000
vt 0.625000 0.750000
vt 0.125000 0.750000
vt 0.625000 0.250000
vt 0.625000 1.000000
vt 0.875000 0.750000
vt 0.875000 0.500000
vt 0.625000 0.000000
vn -1.0000 0.0000 0.0000
vn 0.0000 0.0000 -1.0000
vn 1.0000 0.0000 0.0000
vn 0.0000 -0.0000 1.0000
vn 0.0000 -1.0000 -0.0000
vn 0.0000 1.0000 0.0000
vn -0.5773 0.5775 0.5773
vn -0.5760 0.5800 -0.5760
vn 0.5797 0.5727 -0.5797
vn 0.5775 0.5770 0.5775
usemtl マテリアル.003
s 1
f 1/1/1 2/2/1 3/3/1
f 4/4/2 5/5/2 6/6/2
f 7/7/3 8/8/3 9/9/3
f 10/10/4 11/11/4 12/12/4
f 9/9/5 12/13/5 13/14/5
f 1/15/6 10/16/6 14/17/6
f 4/18/6 1/15/6 14/17/6
f 5/5/5 13/14/5 6/19/5
f 5/5/3 7/7/3 9/9/3
f 11/20/1 1/1/1 3/3/1
f 6/19/5 3/21/5 2/22/5
f 4/18/7 7/7/7 15/23/7
f 7/7/8 10/16/8 16/24/8
f 13/14/5 11/25/5 3/21/5
f 8/8/4 10/10/4 12/12/4
f 2/2/2 4/4/2 6/6/2
f 1/1/1 17/26/1 2/2/1
f 4/4/2 15/23/2 5/5/2
f 7/7/3 16/24/3 8/8/3
f 10/10/4 18/27/4 11/11/4
f 9/9/5 8/8/5 12/13/5
f 1/15/9 18/28/9 10/16/9
f 4/18/10 17/29/10 1/15/10
f 5/5/5 9/9/5 13/14/5
f 5/5/3 15/23/3 7/7/3
f 11/20/1 18/30/1 1/1/1
f 6/19/5 13/14/5 3/21/5
f 4/18/6 14/17/6 7/7/6
f 7/7/6 14/17/6 10/16/6
f 13/14/5 12/13/5 11/25/5
f 8/8/4 16/24/4 10/10/4
f 2/2/2 17/26/2 4/4/2
