# Blender v3.5.0 OBJ File: '無題.blend'
# www.blender.org
mtllib room.mtl
o Cube
v -11.000000 6.000000 11.000000
v -11.000000 0.000000 11.000000
v -11.000000 6.000000 -11.000000
v -11.000000 0.000000 -11.000000
v 11.000000 6.000000 11.000000
v 11.000000 0.000000 11.000000
v 11.000000 6.000000 -11.000000
v 11.000000 0.000000 -11.000000
vt 0.625000 0.750000
vt 0.875000 0.500000
vt 0.625000 0.500000
vt 0.375000 0.250000
vt 0.625000 0.000000
vt 0.375000 0.000000
vt 0.125000 0.750000
vt 0.375000 0.500000
vt 0.125000 0.500000
vt 0.375000 0.750000
vt 0.625000 0.250000
vt 0.875000 0.750000
vn 0.0000 -1.0000 0.0000
vn -1.0000 0.0000 0.0000
vn 0.0000 1.0000 0.0000
vn 1.0000 0.0000 0.0000
vn 0.0000 0.0000 -1.0000
usemtl Material
s off
f 3/1/1 5/2/1 1/3/1
f 6/4/2 7/5/2 8/6/2
f 8/7/3 2/8/3 6/9/3
f 4/10/4 1/3/4 2/8/4
f 2/8/5 5/11/5 6/4/5
f 3/1/1 7/12/1 5/2/1
f 6/4/2 5/11/2 7/5/2
f 8/7/3 4/10/3 2/8/3
f 4/10/4 3/1/4 1/3/4
f 2/8/5 1/3/5 5/11/5
